<svg width="32" height="30" viewBox="0 0 32 30" fill="none" xmlns="http://www.w3.org/2000/svg">
<g clip-path="url(#clip0_2620_1382)">
<path d="M2.8723 9.7352L15.9393 2.66614L29.3491 9.7352V19.8889L19.6238 21.774L15.9393 27.6863L2.8723 20.4459V9.7352Z" fill="white"/>
<path d="M29.8853 10.3403C29.8853 9.77288 29.579 9.25165 29.0864 8.96795L16.7248 1.93476C16.4785 1.7962 16.2056 1.72363 15.926 1.72363C15.6464 1.72363 15.3735 1.7962 15.1272 1.93476L2.79881 9.02735C2.30621 9.31105 2 9.83226 2 10.3997L2.01997 19.8213C2.01997 20.3887 2.32618 20.9099 2.81878 21.1936L14.6812 27.9431C15.0739 28.1674 15.5199 28.2862 15.9726 28.2862C16.4252 28.2862 16.8779 28.1674 17.2707 27.9365L20.8853 25.8582C21.3779 25.5745 21.6841 25.0533 21.6841 24.4859L21.6774 22.5197L23.4015 23.4962C23.6478 23.6348 23.9208 23.7073 24.2004 23.7073C24.4799 23.7073 24.7529 23.6348 24.9992 23.4962L29.1064 21.1342C29.599 20.8505 29.9052 20.3293 29.9052 19.7619L29.8853 10.3403ZM24.0539 12.7749C23.974 12.6363 23.8609 12.5241 23.7211 12.445L16.3986 8.27519C16.1124 8.11685 15.7662 8.11685 15.48 8.27519L8.17749 12.478C7.89125 12.6429 7.71817 12.9398 7.72483 13.2631L7.73149 17.0502C7.73149 17.2943 7.86462 17.5252 8.0843 17.6506L11.1464 19.3924C11.4593 19.5705 11.8587 19.3462 11.8587 18.9833L11.852 15.6119C11.852 15.2886 12.0251 14.9851 12.3047 14.8268L15.5 12.986C15.7795 12.8211 16.1323 12.8211 16.4186 12.986L19.6205 14.807C19.7603 14.8861 19.8801 15.0049 19.9533 15.1368L16.3653 17.2019C16.119 17.3471 15.9659 17.6044 15.9659 17.8881L15.9859 26.7093C15.8261 26.7093 15.6664 26.6697 15.5266 26.5906L4.08357 20.0786C3.79733 19.9202 3.62425 19.6167 3.62425 19.2934L3.60428 10.9209C3.60428 10.5976 3.77736 10.2941 4.05694 10.1358L15.4733 3.57099C15.7529 3.40605 16.1057 3.40605 16.392 3.57099L27.835 10.083C27.9748 10.1621 28.0946 10.2809 28.1678 10.4129L24.0539 12.7749Z" fill="#0B0B0F"/>
<path fill-rule="evenodd" clip-rule="evenodd" d="M29.8855 10.3405C29.8855 10.1291 29.843 9.92414 29.7642 9.73545C29.7086 9.60231 29.6349 9.47728 29.5453 9.36386C29.421 9.20659 29.2663 9.07162 29.0867 8.9682L16.725 1.93501C16.6206 1.87628 16.5115 1.82941 16.399 1.79489C16.2462 1.74797 16.0873 1.72389 15.9262 1.72389C15.7696 1.72389 15.615 1.74667 15.4661 1.79107C15.3492 1.82592 15.2357 1.87409 15.1274 1.93501L2.79906 9.0276C2.71901 9.0737 2.64388 9.12608 2.57418 9.18391C2.39173 9.33531 2.24654 9.52406 2.14784 9.73545C2.05224 9.94017 2.00025 10.1661 2.00025 10.3999L2.02022 19.8215C2.02022 20.0402 2.06573 20.2521 2.14987 20.4461C2.24278 20.6604 2.3828 20.8529 2.56069 21.009C2.63962 21.0782 2.726 21.1403 2.81903 21.1938L14.6814 27.9433C14.9716 28.1091 15.291 28.2172 15.6206 28.2624C15.737 28.2783 15.8547 28.2864 15.9728 28.2864C16.2268 28.2864 16.4807 28.249 16.7241 28.1754C16.8764 28.1294 17.0246 28.0691 17.1661 27.995C17.2015 27.9764 17.2364 27.957 17.2709 27.9367L20.8855 25.8584C21.3781 25.5747 21.6843 25.0535 21.6843 24.4861L21.6777 22.52L23.4018 23.4965C23.6481 23.635 23.921 23.7076 24.2006 23.7076C24.4802 23.7076 24.7531 23.635 24.9994 23.4965L29.1067 21.1345C29.2668 21.0422 29.4072 20.9249 29.5238 20.7891C29.739 20.5384 29.8731 20.2247 29.9003 19.8892C29.9037 19.8471 29.9055 19.8048 29.9055 19.7621L29.8855 10.3405ZM31.1709 10.3405L31.1909 19.7608V19.7621C31.1909 20.7974 30.6321 21.7393 29.7482 22.2483L25.635 24.6138L25.6296 24.6168C25.1949 24.8613 24.7055 24.993 24.2006 24.993C23.7677 24.993 23.3461 24.8962 22.9607 24.7144C22.8852 25.6585 22.3455 26.501 21.5271 26.9723L21.5262 26.9728L17.9166 29.0482C17.3212 29.3968 16.6447 29.5718 15.9728 29.5718C15.2962 29.5718 14.6307 29.3946 14.0444 29.0598C14.0442 29.0597 14.0446 29.0599 14.0444 29.0598L2.18043 22.3094L2.17752 22.3077C1.29409 21.7989 0.735383 20.8577 0.734814 19.8231C0.734814 19.8226 0.734813 19.822 0.734813 19.8215L0.714844 10.4013V10.3999C0.714844 9.36466 1.27367 8.42277 2.15755 7.91372L14.4918 0.817734L14.4972 0.814694C14.9319 0.570138 15.4214 0.438477 15.9262 0.438477C16.4311 0.438477 16.9205 0.57014 17.3553 0.814694L17.358 0.816226L29.7253 7.85263L29.7282 7.85432C30.6115 8.36302 31.1701 9.30398 31.1709 10.3384C31.1709 10.3391 31.1709 10.3398 31.1709 10.3405Z" fill="white" fill-opacity="0.3"/>
</g>
<defs>
<clipPath id="clip0_2620_1382">
<rect width="32" height="30" fill="white"/>
</clipPath>
</defs>
</svg>
